<?xml version="1.0" encoding="utf-8"?>
<!-- Generator: Adobe Illustrator 27.8.1, SVG Export Plug-In . SVG Version: 6.00 Build 0)  -->
<svg version="1.1" xmlns="http://www.w3.org/2000/svg" xmlns:xlink="http://www.w3.org/1999/xlink" x="0px" y="0px" width="820px"
	 height="402.849px" viewBox="0 0 820 402.849" style="enable-background:new 0 0 820 402.849;" xml:space="preserve">
<style type="text/css">
	.st0{fill:#F5F5F5;}
	.st1{fill:#FFFFFF;}
	.st2{fill:url(#SVGID_1_);}
	.st3{fill:#333333;}
	.st4{display:none;}
	.st5{display:inline;fill:#F5F5F5;}
	.st6{display:inline;opacity:0.4;fill:url(#SVGID_00000052093504877611085330000003107363247239322246_);}
	
		.st7{display:inline;fill:#FFFFFF;stroke:url(#SVGID_00000173851371125232709110000017407445322699505797_);stroke-width:7;stroke-miterlimit:10;}
	.st8{display:inline;}
	.st9{display:inline;fill:#333333;}
	.st10{display:inline;opacity:0.9;enable-background:new    ;}
	.st11{clip-path:url(#SVGID_00000172409873781692313430000000918110328116204721_);}
	.st12{clip-path:url(#SVGID_00000090294542699007551260000009050358650145215624_);fill:#F5F5F5;}
	.st13{clip-path:url(#SVGID_00000111182857036050339280000008863696090012920477_);}
	.st14{clip-path:url(#SVGID_00000180341196375459082550000011216923097193642642_);fill:#F5F5F5;}
	.st15{clip-path:url(#SVGID_00000155827691330164834340000009599968094451562424_);}
	.st16{clip-path:url(#SVGID_00000016074896797090186370000010033141465842206088_);fill:#F5F5F5;}
	.st17{clip-path:url(#SVGID_00000013875139360877500120000004139116226309758594_);}
	.st18{clip-path:url(#SVGID_00000044159100071931374440000003009052172501122979_);fill:#F5F5F5;}
	.st19{clip-path:url(#SVGID_00000029022442072492103970000009884373358719674247_);}
	.st20{clip-path:url(#SVGID_00000023999636925158343790000015509557077131359635_);fill:#F5F5F5;}
	.st21{clip-path:url(#SVGID_00000031178728366328109290000014508581266878231725_);}
	.st22{clip-path:url(#SVGID_00000095333142235408946080000002049417057450105510_);fill:#F5F5F5;}
	.st23{clip-path:url(#SVGID_00000000209801083607617640000004108516264507342015_);}
	.st24{clip-path:url(#SVGID_00000018197176149619855200000010173002596574505912_);fill:#F5F5F5;}
	.st25{clip-path:url(#SVGID_00000072256219035741158370000010261371545941633965_);}
	.st26{clip-path:url(#SVGID_00000032628129251884140960000004938139237406501511_);fill:#F5F5F5;}
	.st27{clip-path:url(#SVGID_00000106141544495723387050000014656707881269822103_);}
	.st28{clip-path:url(#SVGID_00000165227692016106613010000000743984184315089034_);fill:#F5F5F5;}
	.st29{clip-path:url(#SVGID_00000171708143228851559510000008169127230109648526_);}
	.st30{clip-path:url(#SVGID_00000087389344125551608660000009566669084076177844_);fill:#F5F5F5;}
	.st31{display:inline;fill:#BCBCBC;}
	.st32{fill:none;stroke:#333333;stroke-width:1.1445;stroke-linecap:round;stroke-linejoin:round;stroke-miterlimit:10;}
	.st33{fill:none;stroke:#333333;stroke-width:2;stroke-linejoin:round;stroke-miterlimit:10;}
	.st34{display:inline;fill-rule:evenodd;clip-rule:evenodd;fill:#333333;}
	.st35{display:inline;fill:none;stroke:#333333;stroke-width:2;stroke-linejoin:round;stroke-miterlimit:10;}
	.st36{fill-rule:evenodd;clip-rule:evenodd;fill:#333333;}
	.st37{fill:none;stroke:#333333;stroke-width:2;stroke-linecap:round;stroke-linejoin:round;stroke-miterlimit:10;}
	.st38{fill:none;stroke:#BCBCBC;stroke-width:3;stroke-miterlimit:10;}
	.st39{fill:#BCBCBC;}
	.st40{display:inline;fill:#1CD0BB;enable-background:new    ;}
	.st41{display:inline;opacity:0.65;fill:#1CD0BB;}
	.st42{display:inline;opacity:0.65;fill:#00A9D7;}
</style>
<g id="GUIDE">
	<rect x="66.698" y="18.986" class="st0" width="713.003" height="342.311"/>
	<g>
		<path class="st1" d="M778.804,318.979H66.223c-0.552,0-1-0.447-1-1s0.448-1,1-1h712.581c0.553,0,1,0.447,1,1
			S779.356,318.979,778.804,318.979z"/>
		<path class="st1" d="M778.804,276.338H66.223c-0.552,0-1-0.447-1-1s0.448-1,1-1h712.581c0.553,0,1,0.447,1,1
			S779.356,276.338,778.804,276.338z"/>
		<path class="st1" d="M778.804,233.697H66.223c-0.552,0-1-0.448-1-1s0.448-1,1-1h712.581c0.553,0,1,0.448,1,1
			S779.356,233.697,778.804,233.697z"/>
		<path class="st1" d="M778.804,191.057H66.223c-0.552,0-1-0.448-1-1s0.448-1,1-1h712.581c0.553,0,1,0.448,1,1
			S779.356,191.057,778.804,191.057z"/>
		<path class="st1" d="M778.804,148.416H66.223c-0.552,0-1-0.448-1-1s0.448-1,1-1h712.581c0.553,0,1,0.448,1,1
			S779.356,148.416,778.804,148.416z"/>
		<path class="st1" d="M778.804,105.775H66.223c-0.552,0-1-0.448-1-1s0.448-1,1-1h712.581c0.553,0,1,0.448,1,1
			S779.356,105.775,778.804,105.775z"/>
		<path class="st1" d="M778.804,63.135H66.223c-0.552,0-1-0.448-1-1s0.448-1,1-1h712.581c0.553,0,1,0.448,1,1
			S779.356,63.135,778.804,63.135z"/>
	</g>
</g>
<g id="Layer_4">
	
		<linearGradient id="SVGID_1_" gradientUnits="userSpaceOnUse" x1="87.2301" y1="346.7144" x2="682.8744" y2="129.9176" gradientTransform="matrix(-1 0 0 1 847.8953 0)">
		<stop  offset="0" style="stop-color:#00B4E5"/>
		<stop  offset="1" style="stop-color:#1CD0BB"/>
	</linearGradient>
	<polygon class="st2" points="98.772,328.67 98.772,331.465 104.501,331.465 104.501,336.88 109.065,336.88 110.033,336.88 
		114.794,336.88 115.157,336.88 120.326,336.88 120.326,304.441 126.418,304.441 126.418,310.594 132.202,310.594 132.202,314.918 
		137.931,314.918 137.931,323.739 142.761,323.739 142.761,248.044 148.852,248.044 148.852,321.447 153.387,321.447 
		153.387,268.622 159.479,268.622 159.479,329.574 163.363,329.574 163.363,268.622 169.197,268.622 169.197,248.092 
		175.002,248.092 175.002,241.579 181.093,241.579 181.093,265.516 186.432,265.516 186.432,282.71 191.363,282.71 191.363,277.899 
		196.633,277.899 196.633,248.044 202.724,248.044 202.724,273.923 207.241,273.923 207.241,241.18 213.332,241.18 213.332,268.622 
		218.005,268.622 218.005,265.516 224.096,265.516 224.096,287.417 228.855,287.417 228.855,248.2 234.194,248.2 234.194,241.579 
		240.286,241.579 240.286,265.516 245.624,265.516 245.624,287.417 250.384,287.417 250.384,248.2 255.722,248.2 255.722,172.22 
		261.814,172.22 261.814,265.516 266.4,265.516 266.4,196.042 271.964,196.042 271.964,184.017 277.302,184.017 277.302,181.115 
		283.394,181.115 283.394,184.017 288.975,184.017 288.975,211.336 293.561,211.336 293.561,204.909 299.653,204.909 299.653,248.2 
		304.239,248.2 304.239,241.579 310.33,241.579 310.33,282.71 313.322,282.71 313.322,277.899 318.591,277.899 318.591,248.044 
		324.683,248.044 324.683,273.923 329.199,273.923 329.199,241.18 335.291,241.18 335.291,268.622 339.963,268.622 339.963,265.516 
		346.055,265.516 346.055,287.417 350.814,287.417 350.814,248.2 356.153,248.2 356.153,241.579 362.244,241.579 362.244,265.516 
		367.583,265.516 367.583,287.417 372.342,287.417 372.342,248.2 377.681,248.2 377.681,207.053 383.772,207.053 383.772,265.516 
		388.359,265.516 388.359,226.496 393.922,226.496 393.922,220.009 399.261,220.009 399.261,217.694 405.352,217.694 
		405.352,220.009 410.934,220.009 410.934,241.794 415.52,241.794 415.52,204.909 421.611,204.909 421.611,248.2 426.197,248.2 
		426.197,241.579 432.289,241.579 432.289,282.71 435.697,282.71 435.697,277.899 440.966,277.899 440.966,248.044 447.058,248.044 
		447.058,273.923 451.574,273.923 451.574,241.18 457.666,241.18 457.666,268.622 462.339,268.622 462.339,265.516 468.43,265.516 
		468.43,287.417 473.189,287.417 473.189,248.2 478.528,248.2 478.528,241.579 484.619,241.579 484.619,265.516 489.958,265.516 
		489.958,287.417 494.717,287.417 494.717,248.2 500.056,248.2 500.056,172.22 506.147,172.22 506.147,265.516 510.734,265.516 
		510.734,196.042 516.297,196.042 516.297,128.394 521.636,128.394 521.636,124.583 527.727,124.583 527.727,128.394 
		532.556,128.394 532.556,101.011 538.647,101.011 538.647,204.909 543.986,204.909 543.986,248.2 548.572,248.2 548.572,241.579 
		554.664,241.579 554.664,282.71 558.737,282.71 558.737,277.899 564.006,277.899 564.006,248.044 570.098,248.044 570.098,273.923 
		574.615,273.923 574.615,241.18 580.706,241.18 580.706,268.622 585.379,268.622 585.379,265.516 591.47,265.516 591.47,287.417 
		596.229,287.417 596.229,248.2 601.568,248.2 601.568,241.579 607.659,241.579 607.659,265.516 612.998,265.516 612.998,287.417 
		617.757,287.417 617.757,248.2 623.096,248.2 623.096,172.22 629.188,172.22 629.188,176.997 634.476,176.997 634.476,64.562 
		639.337,64.562 639.337,53.645 644.676,53.645 644.676,48.613 650.768,48.613 650.768,53.645 656.349,53.645 656.349,101.011 
		661.688,101.011 661.688,204.909 667.026,204.909 667.026,248.2 671.613,248.2 671.613,241.579 677.704,241.579 677.704,265.516 
		683.043,265.516 683.043,287.417 688.382,287.417 688.382,328.67 693.72,328.67 693.72,331.465 699.45,331.465 699.45,336.88 
		704.013,336.88 704.982,336.88 709.742,336.88 710.105,336.88 715.834,336.88 715.834,343.13 721.366,343.13 721.366,345.125 
		727.15,345.125 727.15,346.527 732.88,346.527 732.88,352.936 738.398,352.936 738.398,353.677 743.394,353.677 743.394,352.936 
		749.485,352.936 749.485,353.677 755.214,353.677 755.214,361.69 749.485,361.69 749.123,361.69 744.127,361.69 743.394,361.69 
		738.398,361.69 738.036,361.69 732.88,361.69 732.306,361.69 727.15,361.69 726.788,361.69 721.366,361.69 721.059,361.69 
		715.834,361.69 715.275,361.69 710.105,361.69 709.742,361.69 704.982,361.69 704.013,361.69 699.45,361.69 698.89,361.69 
		693.72,361.69 693.358,361.69 688.382,361.69 687.629,361.69 683.043,361.69 682.29,361.69 677.704,361.69 676.951,361.69 
		672.365,361.69 671.613,361.69 667.026,361.69 666.274,361.69 661.688,361.69 660.935,361.69 656.349,361.69 655.596,361.69 
		650.768,361.69 650.257,361.69 645.429,361.69 644.676,361.69 639.865,361.69 639.337,361.69 634.526,361.69 634.476,361.69 
		629.188,361.69 627.493,361.69 623.849,361.69 623.096,361.69 618.337,361.69 617.757,361.69 612.998,361.69 612.246,361.69 
		607.659,361.69 606.907,361.69 602.321,361.69 601.568,361.69 596.809,361.69 596.229,361.69 591.47,361.69 590.717,361.69 
		586.045,361.69 585.379,361.69 580.706,361.69 579.953,361.69 575.437,361.69 574.615,361.69 570.098,361.69 569.345,361.69 
		564.829,361.69 564.006,361.69 559.49,361.69 558.737,361.69 554.664,361.69 553.398,361.69 549.325,361.69 548.572,361.69 
		543.986,361.69 543.234,361.69 538.647,361.69 537.895,361.69 533.309,361.69 532.556,361.69 527.727,361.69 527.217,361.69 
		522.389,361.69 521.636,361.69 516.825,361.69 516.297,361.69 511.486,361.69 510.734,361.69 506.147,361.69 505.395,361.69 
		500.809,361.69 500.056,361.69 495.297,361.69 494.717,361.69 489.958,361.69 489.205,361.69 484.619,361.69 483.867,361.69 
		479.281,361.69 478.528,361.69 473.769,361.69 473.189,361.69 468.43,361.69 467.677,361.69 463.005,361.69 462.339,361.69 
		457.666,361.69 456.913,361.69 452.396,361.69 451.574,361.69 447.058,361.69 446.305,361.69 441.788,361.69 440.966,361.69 
		436.45,361.69 435.697,361.69 432.289,361.69 430.358,361.69 426.95,361.69 426.197,361.69 421.611,361.69 420.859,361.69 
		416.272,361.69 415.52,361.69 410.934,361.69 410.181,361.69 405.352,361.69 404.842,361.69 400.013,361.69 399.261,361.69 
		394.45,361.69 393.922,361.69 389.111,361.69 388.359,361.69 383.772,361.69 383.02,361.69 378.434,361.69 377.681,361.69 
		372.922,361.69 372.342,361.69 367.583,361.69 366.83,361.69 362.244,361.69 361.492,361.69 356.905,361.69 356.153,361.69 
		351.394,361.69 350.814,361.69 346.055,361.69 345.302,361.69 340.63,361.69 339.963,361.69 335.291,361.69 334.538,361.69 
		330.021,361.69 329.199,361.69 324.683,361.69 323.93,361.69 319.413,361.69 318.591,361.69 314.075,361.69 313.322,361.69 
		310.33,361.69 307.983,361.69 304.991,361.69 304.239,361.69 299.653,361.69 298.9,361.69 294.314,361.69 293.561,361.69 
		288.975,361.69 288.222,361.69 283.394,361.69 282.884,361.69 278.055,361.69 277.302,361.69 272.491,361.69 271.964,361.69 
		267.153,361.69 266.4,361.69 261.814,361.69 261.061,361.69 256.475,361.69 255.722,361.69 250.963,361.69 250.384,361.69 
		245.624,361.69 244.872,361.69 240.286,361.69 239.533,361.69 234.947,361.69 234.194,361.69 229.435,361.69 228.855,361.69 
		224.096,361.69 223.344,361.69 218.671,361.69 218.005,361.69 213.332,361.69 212.579,361.69 208.063,361.69 207.241,361.69 
		202.724,361.69 201.971,361.69 197.455,361.69 196.633,361.69 192.116,361.69 191.363,361.69 186.432,361.69 186.025,361.69 
		181.093,361.69 180.341,361.69 175.002,361.69 175.002,361.582 169.455,361.582 169.455,361.69 164.904,361.69 163.363,361.69 
		159.479,361.69 158.812,361.69 154.14,361.69 153.387,361.69 148.852,361.69 148.048,361.69 143.532,361.69 142.761,361.69 
		137.931,361.69 137.44,361.69 132.202,361.69 131.84,361.69 126.418,361.69 126.111,361.69 120.886,361.69 120.326,361.69 
		115.157,361.69 114.794,361.69 110.033,361.69 109.065,361.69 104.501,361.69 103.942,361.69 98.772,361.69 98.41,361.69 
		92.681,361.69 92.681,328.67 	"/>
</g>
<g id="Layer_3">
	<g>
		<g>
			<path class="st3" d="M38.81,315.534l-1.511,0.42l-0.312-1.199l2.267-0.72h1.02v8.455H38.81V315.534z"/>
			<path class="st3" d="M42.71,318.316v-0.023c0-2.398,1.463-4.342,3.67-4.342c2.195,0,3.646,1.919,3.646,4.317v0.024
				c0,2.398-1.463,4.342-3.67,4.342C44.15,322.634,42.71,320.715,42.71,318.316z M48.503,318.316v-0.023
				c0-1.655-0.852-3.011-2.147-3.011s-2.123,1.319-2.123,2.986v0.024c0,1.655,0.839,3.01,2.146,3.01
				C47.688,321.302,48.503,319.96,48.503,318.316z"/>
		</g>
	</g>
	<g>
		<g>
			<path class="st3" d="M109.725,377.317l-1.511,0.42l-0.312-1.199l2.267-0.72h1.02v8.455h-1.463V377.317z"/>
			<path class="st3" d="M113.626,380.099v-0.023c0-2.398,1.463-4.342,3.67-4.342c2.195,0,3.646,1.919,3.646,4.317v0.024
				c0,2.398-1.463,4.342-3.67,4.342C115.065,384.418,113.626,382.499,113.626,380.099z M119.419,380.099v-0.023
				c0-1.655-0.852-3.011-2.147-3.011s-2.123,1.319-2.123,2.986v0.024c0,1.655,0.839,3.01,2.146,3.01
				C118.604,383.086,119.419,381.743,119.419,380.099z"/>
			<path class="st3" d="M127.51,375.878h1.571l2.555,3.97l2.555-3.97h1.571v8.396h-1.476v-6.021l-2.65,3.958h-0.048l-2.626-3.934
				v5.996h-1.451V375.878z"/>
			<path class="st3" d="M138.61,375.878h1.475v8.396h-1.475V375.878z"/>
			<path class="st3" d="M142.93,375.878h1.367l4.498,5.805v-5.805h1.451v8.396h-1.235l-4.629-5.973v5.973h-1.451V375.878z"/>
		</g>
	</g>
	<g>
		<g>
			<path class="st3" d="M243.883,383.11l2.89-2.459c1.151-0.983,1.571-1.511,1.571-2.267c0-0.827-0.588-1.308-1.355-1.308
				s-1.295,0.42-1.931,1.26l-1.056-0.827c0.804-1.116,1.595-1.751,3.094-1.751c1.643,0,2.771,1.007,2.771,2.506v0.024
				c0,1.319-0.695,2.039-2.183,3.25l-1.727,1.439h3.994v1.295h-6.068V383.11z"/>
			<path class="st3" d="M251.935,380.099v-0.023c0-2.398,1.463-4.342,3.67-4.342c2.195,0,3.646,1.919,3.646,4.317v0.024
				c0,2.398-1.463,4.342-3.67,4.342C253.374,384.418,251.935,382.499,251.935,380.099z M257.728,380.099v-0.023
				c0-1.655-0.852-3.011-2.147-3.011s-2.123,1.319-2.123,2.986v0.024c0,1.655,0.839,3.01,2.146,3.01
				C256.912,383.086,257.728,381.743,257.728,380.099z"/>
			<path class="st3" d="M265.818,375.878h1.571l2.555,3.97l2.555-3.97h1.571v8.396h-1.476v-6.021l-2.65,3.958h-0.048l-2.626-3.934
				v5.996h-1.451V375.878z"/>
			<path class="st3" d="M276.918,375.878h1.475v8.396h-1.475V375.878z"/>
			<path class="st3" d="M281.238,375.878h1.367l4.498,5.805v-5.805h1.451v8.396h-1.235l-4.629-5.973v5.973h-1.451V375.878z"/>
		</g>
	</g>
	<g>
		<g>
			<path class="st3" d="M380.788,382.942l1.032-0.959c0.6,0.707,1.271,1.103,2.207,1.103c0.828,0,1.451-0.503,1.451-1.271v-0.024
				c0-0.827-0.755-1.295-1.931-1.295h-0.684l-0.24-0.924l2.267-2.411h-3.634v-1.283h5.553v1.104l-2.339,2.398
				c1.271,0.156,2.471,0.804,2.471,2.352v0.023c0,1.547-1.188,2.663-2.938,2.663C382.539,384.418,381.495,383.805,380.788,382.942z"
				/>
			<path class="st3" d="M388.972,380.099v-0.023c0-2.398,1.463-4.342,3.67-4.342c2.195,0,3.646,1.919,3.646,4.317v0.024
				c0,2.398-1.463,4.342-3.67,4.342C390.411,384.418,388.972,382.499,388.972,380.099z M394.765,380.099v-0.023
				c0-1.655-0.852-3.011-2.147-3.011s-2.123,1.319-2.123,2.986v0.024c0,1.655,0.839,3.01,2.146,3.01
				C393.949,383.086,394.765,381.743,394.765,380.099z"/>
			<path class="st3" d="M402.855,375.878h1.571l2.555,3.97l2.555-3.97h1.572v8.396h-1.476v-6.021l-2.65,3.958h-0.048l-2.626-3.934
				v5.996h-1.451V375.878z"/>
			<path class="st3" d="M413.955,375.878h1.476v8.396h-1.476V375.878z"/>
			<path class="st3" d="M418.275,375.878h1.367l4.497,5.805v-5.805h1.451v8.396h-1.235l-4.629-5.973v5.973h-1.451V375.878z"/>
		</g>
	</g>
	<g>
		<g>
			<path class="st3" d="M521.836,382.39h-4.233l-0.276-1.056l4.666-5.517h1.259v5.361h1.199v1.211h-1.199v1.883h-1.415V382.39z
				 M521.836,381.179v-3.322l-2.759,3.322H521.836z"/>
			<path class="st3" d="M526.362,380.099v-0.023c0-2.398,1.463-4.342,3.67-4.342c2.194,0,3.646,1.919,3.646,4.317v0.024
				c0,2.398-1.463,4.342-3.67,4.342C527.802,384.418,526.362,382.499,526.362,380.099z M532.155,380.099v-0.023
				c0-1.655-0.852-3.011-2.147-3.011c-1.295,0-2.123,1.319-2.123,2.986v0.024c0,1.655,0.84,3.01,2.147,3.01
				C531.339,383.086,532.155,381.743,532.155,380.099z"/>
			<path class="st3" d="M540.246,375.878h1.571l2.555,3.97l2.555-3.97h1.571v8.396h-1.476v-6.021l-2.65,3.958h-0.048l-2.627-3.934
				v5.996h-1.451V375.878z"/>
			<path class="st3" d="M551.346,375.878h1.476v8.396h-1.476V375.878z"/>
			<path class="st3" d="M555.666,375.878h1.367l4.497,5.805v-5.805h1.451v8.396h-1.235l-4.629-5.973v5.973h-1.451V375.878z"/>
		</g>
	</g>
	<g>
		<g>
			<path class="st3" d="M654.819,383.134l0.912-1.068c0.672,0.624,1.379,1.008,2.158,1.008c1.008,0,1.668-0.575,1.668-1.451v-0.023
				c0-0.852-0.72-1.392-1.739-1.392c-0.6,0-1.115,0.168-1.548,0.372l-0.887-0.588l0.239-4.114h5.025v1.308h-3.754l-0.132,1.967
				c0.396-0.144,0.768-0.239,1.331-0.239c1.631,0,2.927,0.863,2.927,2.638v0.024c0,1.715-1.26,2.843-3.118,2.843
				C656.619,384.418,655.611,383.902,654.819,383.134z"/>
			<path class="st3" d="M663.016,380.099v-0.023c0-2.398,1.463-4.342,3.67-4.342c2.194,0,3.646,1.919,3.646,4.317v0.024
				c0,2.398-1.463,4.342-3.67,4.342C664.455,384.418,663.016,382.499,663.016,380.099z M668.809,380.099v-0.023
				c0-1.655-0.852-3.011-2.147-3.011c-1.295,0-2.123,1.319-2.123,2.986v0.024c0,1.655,0.84,3.01,2.147,3.01
				C667.992,383.086,668.809,381.743,668.809,380.099z"/>
			<path class="st3" d="M676.899,375.878h1.57l2.555,3.97l2.555-3.97h1.571v8.396h-1.476v-6.021l-2.65,3.958h-0.048l-2.626-3.934
				v5.996h-1.451V375.878z"/>
			<path class="st3" d="M687.999,375.878h1.476v8.396h-1.476V375.878z"/>
			<path class="st3" d="M692.319,375.878h1.367l4.497,5.805v-5.805h1.451v8.396h-1.235l-4.629-5.973v5.973h-1.451V375.878z"/>
		</g>
	</g>
	<g>
		<g>
			<path class="st3" d="M35.961,278.34l2.89-2.459c1.151-0.983,1.571-1.511,1.571-2.267c0-0.827-0.588-1.308-1.355-1.308
				s-1.295,0.42-1.931,1.26l-1.056-0.827c0.804-1.116,1.595-1.751,3.094-1.751c1.643,0,2.771,1.007,2.771,2.506v0.024
				c0,1.319-0.695,2.039-2.183,3.25l-1.727,1.439h3.994v1.295h-6.068V278.34z"/>
			<path class="st3" d="M44.013,275.33v-0.023c0-2.398,1.463-4.342,3.67-4.342c2.195,0,3.646,1.919,3.646,4.317v0.024
				c0,2.398-1.463,4.342-3.67,4.342C45.452,279.648,44.013,277.729,44.013,275.33z M49.806,275.33v-0.023
				c0-1.655-0.852-3.011-2.147-3.011s-2.123,1.319-2.123,2.986v0.024c0,1.655,0.84,3.01,2.147,3.01S49.806,276.973,49.806,275.33z"
				/>
		</g>
	</g>
	<g>
		<g>
			<path class="st3" d="M35.858,235.187l1.032-0.959c0.6,0.708,1.271,1.103,2.207,1.103c0.828,0,1.451-0.503,1.451-1.271v-0.024
				c0-0.828-0.755-1.295-1.931-1.295h-0.684l-0.24-0.923l2.267-2.411h-3.634v-1.283h5.553v1.104l-2.339,2.398
				c1.271,0.156,2.471,0.804,2.471,2.351v0.024c0,1.547-1.188,2.663-2.938,2.663C37.609,236.662,36.566,236.05,35.858,235.187z"/>
			<path class="st3" d="M44.042,232.344v-0.024c0-2.398,1.463-4.341,3.67-4.341c2.195,0,3.646,1.919,3.646,4.317v0.024
				c0,2.399-1.463,4.342-3.67,4.342C45.482,236.662,44.042,234.743,44.042,232.344z M49.835,232.344v-0.024
				c0-1.655-0.852-3.01-2.147-3.01s-2.123,1.319-2.123,2.986v0.024c0,1.655,0.839,3.01,2.146,3.01
				C49.02,235.33,49.835,233.987,49.835,232.344z"/>
		</g>
	</g>
	<g>
		<g>
			<path class="st3" d="M39.9,191.648h-4.234l-0.276-1.056l4.666-5.517h1.259v5.361h1.199v1.211h-1.199v1.883H39.9V191.648z
				 M39.9,190.437v-3.322l-2.759,3.322H39.9z"/>
			<path class="st3" d="M44.426,189.357v-0.024c0-2.398,1.463-4.341,3.67-4.341c2.195,0,3.646,1.919,3.646,4.317v0.024
				c0,2.399-1.463,4.342-3.67,4.342C45.866,193.675,44.426,191.756,44.426,189.357z M50.219,189.357v-0.024
				c0-1.655-0.852-3.01-2.147-3.01s-2.123,1.319-2.123,2.986v0.024c0,1.655,0.839,3.01,2.146,3.01
				C49.404,192.344,50.219,191.001,50.219,189.357z"/>
		</g>
	</g>
	<g>
		<g>
			<path class="st3" d="M35.876,149.406l0.912-1.068c0.672,0.624,1.379,1.008,2.159,1.008c1.008,0,1.667-0.576,1.667-1.451v-0.024
				c0-0.852-0.72-1.392-1.739-1.392c-0.6,0-1.115,0.168-1.547,0.372l-0.887-0.588l0.24-4.114h5.025v1.308h-3.754l-0.132,1.967
				c0.396-0.144,0.768-0.24,1.331-0.24c1.631,0,2.926,0.863,2.926,2.638v0.024c0,1.715-1.259,2.843-3.118,2.843
				C37.676,150.689,36.668,150.173,35.876,149.406z"/>
			<path class="st3" d="M44.072,146.371v-0.024c0-2.398,1.463-4.341,3.67-4.341c2.195,0,3.646,1.919,3.646,4.317v0.024
				c0,2.399-1.463,4.342-3.67,4.342C45.512,150.689,44.072,148.77,44.072,146.371z M49.865,146.371v-0.024
				c0-1.655-0.852-3.01-2.147-3.01s-2.123,1.319-2.123,2.986v0.024c0,1.655,0.84,3.01,2.147,3.01S49.865,148.014,49.865,146.371z"/>
		</g>
	</g>
	<g>
		<g>
			<path class="st3" d="M36.818,106.815c-0.636-0.636-1.02-1.511-1.02-3.202v-0.024c0-2.567,1.223-4.569,3.598-4.569
				c1.091,0,1.835,0.348,2.566,0.935l-0.792,1.14c-0.588-0.456-1.08-0.732-1.823-0.732c-1.463,0-1.991,1.523-2.015,2.675
				c0.492-0.516,1.115-0.852,2.015-0.852c1.619,0,2.926,0.959,2.926,2.639v0.024c0,1.667-1.355,2.854-3.118,2.854
				C38.125,107.703,37.381,107.379,36.818,106.815z M40.8,104.908v-0.024c0-0.84-0.672-1.463-1.715-1.463s-1.703,0.671-1.703,1.475
				v0.024c0,0.852,0.696,1.5,1.739,1.5S40.8,105.772,40.8,104.908z"/>
			<path class="st3" d="M44.27,103.385v-0.024c0-2.398,1.463-4.341,3.67-4.341c2.195,0,3.646,1.919,3.646,4.317v0.024
				c0,2.399-1.463,4.342-3.67,4.342C45.709,107.703,44.27,105.784,44.27,103.385z M50.063,103.385v-0.024
				c0-1.655-0.852-3.01-2.147-3.01s-2.123,1.319-2.123,2.986v0.024c0,1.655,0.839,3.01,2.146,3.01
				C49.248,106.371,50.063,105.028,50.063,103.385z"/>
		</g>
	</g>
	<g>
		<g>
			<path class="st3" d="M40.554,57.472h-4.222v-1.295h5.901v1.116l-3.778,7.28h-1.667L40.554,57.472z"/>
			<path class="st3" d="M43.868,60.398v-0.024c0-2.398,1.463-4.341,3.67-4.341c2.195,0,3.646,1.919,3.646,4.317v0.024
				c0,2.399-1.463,4.342-3.67,4.342C45.308,64.716,43.868,62.797,43.868,60.398z M49.661,60.398v-0.024
				c0-1.655-0.852-3.01-2.147-3.01s-2.123,1.319-2.123,2.986v0.024c0,1.655,0.84,3.01,2.147,3.01S49.661,62.041,49.661,60.398z"/>
		</g>
	</g>
</g>
<g id="area_chart_graphics" class="st4">
</g>
</svg>
