<?xml version="1.0" encoding="utf-8"?>
<!-- Generator: Adobe Illustrator 27.8.1, SVG Export Plug-In . SVG Version: 6.00 Build 0)  -->
<svg version="1.1" xmlns="http://www.w3.org/2000/svg" xmlns:xlink="http://www.w3.org/1999/xlink" x="0px" y="0px" width="820px"
	 height="409.929px" viewBox="0 0 820 409.929" style="enable-background:new 0 0 820 409.929;" xml:space="preserve">
<style type="text/css">
	.st0{fill-rule:evenodd;clip-rule:evenodd;fill:#6E7C7C;stroke:#FFFFFF;stroke-miterlimit:10;}
	.st1{fill-rule:evenodd;clip-rule:evenodd;fill:#80BC00;stroke:#FFFFFF;stroke-miterlimit:10;}
	.st2{fill-rule:evenodd;clip-rule:evenodd;fill:#3A8DDE;stroke:#FFFFFF;stroke-miterlimit:10;}
	.st3{fill:#FFA400;stroke:#FFFFFF;stroke-miterlimit:10;}
	.st4{fill-rule:evenodd;clip-rule:evenodd;fill:#00A9D7;stroke:#FFFFFF;stroke-miterlimit:10;}
</style>
<g id="GUIDE">
	<g>
		<g>
			<g>
				<g>
					<path class="st0" d="M419.961,206.446L282.384,78.153c36.844-39.51,83.553-59.82,137.577-59.82V206.446z"/>
				</g>
			</g>
			<g>
				<g>
					<path class="st1" d="M419.961,206.446l-178.905-58.13c8.989-27.666,21.49-48.888,41.329-70.162L419.961,206.446z"/>
				</g>
			</g>
			<g>
				<g>
					<path class="st2" d="M419.961,206.446v188.112c-103.892,0-188.112-84.221-188.112-188.112c0-20.778,2.786-38.369,9.207-58.13
						L419.961,206.446z"/>
				</g>
			</g>
			<g>
				<g>
					<path class="st3" d="M419.961,206.446l110.57,152.186c-33.62,24.426-69.013,35.926-110.57,35.926V206.446z"/>
				</g>
			</g>
			<g>
				<g>
					<path class="st4" d="M419.961,206.446V18.333c103.892,0,188.112,84.221,188.112,188.112
						c0,62.335-27.113,115.546-77.543,152.186L419.961,206.446z"/>
				</g>
			</g>
		</g>
		<g>
			<g>
			</g>
			<g>
			</g>
			<g>
			</g>
			<g>
			</g>
			<g>
			</g>
		</g>
	</g>
</g>
<g id="resources">
	<g>
		<path d="M495.593,181.238h-7.961l-0.519-1.985l8.772-10.374h2.368v10.081h2.255v2.278h-2.255v3.541h-2.661V181.238z
			 M495.593,178.96v-6.247l-5.188,6.247H495.593z"/>
		<path d="M504.369,176.931v-0.045c0-4.51,2.752-8.164,6.901-8.164c4.127,0,6.855,3.608,6.855,8.119v0.045
			c0,4.511-2.751,8.164-6.9,8.164C507.075,185.049,504.369,181.441,504.369,176.931z M515.262,176.931v-0.045
			c0-3.112-1.602-5.661-4.036-5.661c-2.437,0-3.992,2.481-3.992,5.616v0.045c0,3.112,1.579,5.661,4.037,5.661
			S515.262,180.02,515.262,176.931z"/>
		<path d="M521.896,172.893v-0.045c0-2.21,1.512-4.037,3.744-4.037s3.698,1.827,3.698,3.992v0.045c0,2.188-1.488,4.037-3.743,4.037
			C523.386,176.885,521.896,175.059,521.896,172.893z M535.045,168.992h2.232l-6.224,8.412l-5.323,7.375h-2.232l6.202-8.39
			L535.045,168.992z M523.904,172.803v0.045c0,1.286,0.722,2.3,1.736,2.3c1.06,0,1.691-1.038,1.691-2.255v-0.045
			c0-1.263-0.722-2.3-1.736-2.3C524.535,170.548,523.904,171.585,523.904,172.803z M531.437,180.967v-0.045
			c0-2.21,1.511-4.037,3.744-4.037c2.21,0,3.698,1.827,3.698,3.992v0.045c0,2.188-1.511,4.037-3.743,4.037
			C532.925,184.959,531.437,183.132,531.437,180.967z M536.872,180.967v-0.045c0-1.263-0.722-2.3-1.736-2.3
			c-1.061,0-1.692,1.037-1.692,2.255v0.045c0,1.286,0.723,2.3,1.737,2.3C536.24,183.223,536.872,182.185,536.872,180.967z"/>
	</g>
	<g>
		<path d="M343.146,70.912l-2.841,0.79l-0.586-2.255l4.262-1.353h1.917v15.899h-2.751V70.912z"/>
		<path d="M350.433,81.489l1.939-1.804c1.128,1.331,2.391,2.075,4.15,2.075c1.556,0,2.729-0.947,2.729-2.39v-0.045
			c0-1.556-1.42-2.436-3.631-2.436h-1.285l-0.451-1.737l4.262-4.533h-6.833v-2.413h10.442v2.075l-4.397,4.511
			c2.39,0.293,4.646,1.511,4.646,4.42v0.045c0,2.909-2.232,5.006-5.525,5.006C353.726,84.263,351.764,83.113,350.433,81.489z"/>
		<path d="M365.886,72.107v-0.045c0-2.21,1.511-4.037,3.743-4.037s3.698,1.827,3.698,3.992v0.045c0,2.188-1.488,4.037-3.743,4.037
			C367.374,76.099,365.886,74.272,365.886,72.107z M379.033,68.206h2.232l-6.224,8.412l-5.323,7.375h-2.232l6.202-8.39
			L379.033,68.206z M367.893,72.017v0.045c0,1.286,0.722,2.3,1.736,2.3c1.06,0,1.691-1.038,1.691-2.255v-0.045
			c0-1.263-0.722-2.3-1.736-2.3C368.523,69.762,367.893,70.799,367.893,72.017z M375.425,80.181v-0.045
			c0-2.21,1.511-4.037,3.744-4.037c2.21,0,3.698,1.827,3.698,3.992v0.045c0,2.188-1.511,4.037-3.743,4.037
			C376.913,84.173,375.425,82.346,375.425,80.181z M380.86,80.181v-0.045c0-1.263-0.722-2.3-1.736-2.3
			c-1.061,0-1.691,1.037-1.691,2.255v0.045c0,1.286,0.721,2.3,1.736,2.3C380.229,82.436,380.86,81.399,380.86,80.181z"/>
	</g>
	<g>
		<path d="M293.732,279.045l1.939-1.804c1.128,1.331,2.391,2.075,4.15,2.075c1.556,0,2.729-0.947,2.729-2.39v-0.045
			c0-1.556-1.42-2.436-3.631-2.436h-1.286l-0.451-1.737l4.262-4.533h-6.833v-2.413h10.442v2.075l-4.397,4.511
			c2.391,0.293,4.646,1.511,4.646,4.42v0.045c0,2.909-2.232,5.006-5.525,5.006C297.024,281.819,295.062,280.669,293.732,279.045z"/>
		<path d="M309.387,273.7v-0.045c0-4.51,2.751-8.164,6.901-8.164c4.127,0,6.856,3.608,6.856,8.119v0.045
			c0,4.511-2.751,8.164-6.901,8.164S309.387,278.21,309.387,273.7z M320.28,273.7v-0.045c0-3.112-1.602-5.661-4.037-5.661
			c-2.436,0-3.992,2.481-3.992,5.616v0.045c0,3.112,1.579,5.661,4.037,5.661C318.747,279.315,320.28,276.789,320.28,273.7z"/>
		<path d="M326.915,269.663v-0.045c0-2.21,1.511-4.037,3.743-4.037s3.698,1.827,3.698,3.992v0.045c0,2.188-1.488,4.037-3.743,4.037
			C328.403,273.655,326.915,271.828,326.915,269.663z M340.062,265.762h2.232l-6.224,8.412l-5.323,7.375h-2.232l6.202-8.39
			L340.062,265.762z M328.921,269.573v0.045c0,1.286,0.722,2.3,1.736,2.3c1.06,0,1.691-1.038,1.691-2.255v-0.045
			c0-1.263-0.722-2.3-1.736-2.3C329.552,267.318,328.921,268.355,328.921,269.573z M336.454,277.737v-0.045
			c0-2.21,1.511-4.037,3.744-4.037c2.21,0,3.698,1.827,3.698,3.992v0.045c0,2.188-1.511,4.037-3.743,4.037
			C337.942,281.729,336.454,279.902,336.454,277.737z M341.889,277.737v-0.045c0-1.263-0.722-2.3-1.736-2.3
			c-1.061,0-1.691,1.037-1.691,2.255v0.045c0,1.286,0.721,2.3,1.736,2.3C341.257,279.992,341.889,278.955,341.889,277.737z"/>
	</g>
	<g>
		<path d="M444.261,323.35l-2.842,0.79l-0.586-2.255l4.262-1.353h1.917v15.899h-2.751V323.35z"/>
		<path d="M451.863,328.582v-0.045c0-4.51,2.752-8.164,6.901-8.164c4.127,0,6.855,3.608,6.855,8.119v0.045
			c0,4.511-2.751,8.164-6.9,8.164C454.569,336.701,451.863,333.093,451.863,328.582z M462.756,328.582v-0.045
			c0-3.112-1.601-5.661-4.036-5.661c-2.437,0-3.992,2.481-3.992,5.616v0.045c0,3.112,1.579,5.661,4.037,5.661
			S462.756,331.672,462.756,328.582z"/>
		<path d="M469.391,324.545V324.5c0-2.21,1.511-4.037,3.743-4.037s3.698,1.827,3.698,3.992v0.045c0,2.188-1.488,4.037-3.743,4.037
			C470.879,328.537,469.391,326.71,469.391,324.545z M482.538,320.644h2.232l-6.224,8.412l-5.323,7.375h-2.232l6.202-8.39
			L482.538,320.644z M471.397,324.455v0.045c0,1.286,0.722,2.3,1.736,2.3c1.06,0,1.691-1.038,1.691-2.255V324.5
			c0-1.263-0.722-2.3-1.736-2.3C472.028,322.2,471.397,323.237,471.397,324.455z M478.93,332.619v-0.045
			c0-2.21,1.511-4.037,3.744-4.037c2.21,0,3.698,1.827,3.698,3.992v0.045c0,2.188-1.511,4.037-3.743,4.037
			C480.418,336.611,478.93,334.784,478.93,332.619z M484.365,332.619v-0.045c0-1.263-0.722-2.3-1.736-2.3
			c-1.061,0-1.691,1.037-1.691,2.255v0.045c0,1.286,0.721,2.3,1.736,2.3C483.733,334.874,484.365,333.837,484.365,332.619z"/>
	</g>
	<g>
		<path d="M286.304,128.53h-7.938v-2.436h11.096v2.097l-7.104,13.689h-3.135L286.304,128.53z"/>
		<path d="M293.051,129.996v-0.045c0-2.21,1.511-4.037,3.744-4.037c2.233,0,3.699,1.827,3.699,3.992v0.045
			c0,2.188-1.488,4.037-3.744,4.037C294.539,133.988,293.051,132.161,293.051,129.996z M306.199,126.095h2.232l-6.225,8.412
			l-5.322,7.375h-2.233l6.202-8.39L306.199,126.095z M295.058,129.906v0.045c0,1.286,0.722,2.3,1.736,2.3
			c1.06,0,1.691-1.038,1.691-2.255v-0.045c0-1.263-0.722-2.3-1.736-2.3C295.689,127.651,295.058,128.688,295.058,129.906z
			 M302.591,138.07v-0.045c0-2.21,1.511-4.037,3.743-4.037c2.21,0,3.699,1.827,3.699,3.992v0.045c0,2.188-1.512,4.037-3.744,4.037
			C304.079,142.062,302.591,140.235,302.591,138.07z M308.025,138.07v-0.045c0-1.263-0.722-2.3-1.736-2.3
			c-1.06,0-1.691,1.037-1.691,2.255v0.045c0,1.286,0.722,2.3,1.736,2.3C307.395,140.325,308.025,139.288,308.025,138.07z"/>
	</g>
</g>
<g id="Layer_6">
</g>
</svg>
